<?xml version="1.0" encoding="UTF-8" standalone="no"?>
<svg width="41px" height="58px" viewBox="0 0 41 58" version="1.1" xmlns="http://www.w3.org/2000/svg" xmlns:xlink="http://www.w3.org/1999/xlink" xmlns:sketch="http://www.bohemiancoding.com/sketch/ns">
    <!-- Generator: Sketch 3.3.1 (12002) - http://www.bohemiancoding.com/sketch -->
    <title>Diagnostic_1</title>
    <desc>Created with Sketch.</desc>
    <defs></defs>
    <g id="Page-1" stroke="none" stroke-width="1" fill="none" fill-rule="evenodd" sketch:type="MSPage">
        <g id="Услуга" sketch:type="MSArtboardGroup" transform="translate(-42.000000, -257.000000)" fill="#A3AFC1">
            <g id="Group" sketch:type="MSLayerGroup" transform="translate(-4.000000, 238.000000)">
                <g id="Diagnostic_1" transform="translate(46.000000, 19.000000)" sketch:type="MSShapeGroup">
                    <path d="M39.7217756,0 L1.27659766,0 C0.803315606,0 0.419553571,0.333340659 0.419553571,0.74443956 L0.419553571,56.6181978 C0.419553571,57.0292967 0.803315606,57.3626374 1.27659766,57.3626374 L39.7225093,57.3626374 C40.1957914,57.3626374 40.5795534,57.0292967 40.5795534,56.6181978 L40.5795534,0.74443956 C40.5788196,0.333340659 40.1950576,0 39.7217756,0 L39.7217756,0 Z M1.11936114,56.4688185 L1.11936114,0.893181496 L39.8797458,0.893181496 L39.8797458,56.4688185 L1.11936114,56.4688185 Z" id="Shape"></path>
                    <path d="M7.31214286,15.7772747 L33.6878571,15.7772747 C34.1146786,15.7772747 34.4595714,15.4439341 34.4595714,15.0328352 L34.4595714,5.52274725 C34.4595714,5.11101099 34.1146786,4.77830769 33.6878571,4.77830769 L7.31214286,4.77830769 C6.88532143,4.77830769 6.54042857,5.11164835 6.54042857,5.52274725 L6.54042857,15.0328352 C6.54042857,15.4439341 6.88598214,15.7772747 7.31214286,15.7772747 L7.31214286,15.7772747 Z M7.22718072,5.38439844 L33.7728193,5.38439844 L33.7728193,15.1705466 L7.22718072,15.1705466 L7.22718072,5.38439844 L7.22718072,5.38439844 Z" id="Shape"></path>
                    <path d="M29.7962731,22.274805 C27.3132575,19.8789463 24.0119047,18.5600535 20.5002112,18.5600535 C16.9878954,18.5600535 13.6865425,19.8795467 11.2029046,22.274805 C6.08067368,27.216601 6.07756213,35.2566247 11.19357,40.202623 C11.1966815,40.2056245 11.1997931,40.2086261 11.2022823,40.212228 C11.2060162,40.2152296 11.2091277,40.2182312 11.2128616,40.2212327 C13.6952549,42.6104879 16.9934962,43.9269795 20.5008335,43.9269795 C24.0131493,43.9269795 27.3145021,42.6080866 29.7975177,40.212228 C32.2805333,37.8169697 33.64837,34.6316964 33.64837,31.2441168 C33.64837,27.8565372 32.2805333,24.6700633 29.7962731,22.274805 L29.7962731,22.274805 Z M11.6962195,39.7794431 C10.7631579,38.9161285 10.1914204,37.8408689 10.9179641,37.1738209 L25.9899289,22.5225827 C26.4394738,22.0213438 27.1019907,22.0213438 27.5988082,22.0213438 C28.0956257,22.0213438 28.8554867,22.38632 29.2076875,22.7096795 C29.5598882,23.033039 30.14674,23.5159391 30.2404753,24.0128082 C30.3342106,24.5096773 30.3342106,24.8838709 29.8899584,25.5959468 L14.4292118,40.247185 C13.5300735,40.7997203 12.6292812,40.6427577 11.6962195,39.7794431 Z M20.5006607,19.2661978 C22.7906964,19.2661978 24.9855893,19.8614945 26.8976964,20.9736923 C26.443125,21.1317582 26.0248929,21.3816044 25.6727321,21.7213187 L10.6295893,36.2327912 C10.2774286,36.5725055 10.024375,36.9714945 9.86382143,37.3953407 C7.00623214,32.7942198 7.61607143,26.7341758 11.7210893,22.7742418 C14.066625,20.5122418 17.1845357,19.2661978 20.5006607,19.2661978 Z M29.2795714,39.7121538 C26.9346964,41.9747912 23.816125,43.2201978 20.5006607,43.2201978 C18.2099643,43.2201978 16.0144107,42.6255385 14.1023036,41.5127033 C14.556875,41.3552747 14.9757679,41.1047912 15.3279286,40.7650769 L30.3710714,26.2542418 C30.7225714,25.9145275 30.9822321,25.5110769 31.1460893,25.0725714 C32.2990357,26.9164615 32.9161429,29.0337802 32.9161429,31.2428791 C32.9161429,34.4424396 31.6244464,37.4501538 29.2795714,39.7121538 L29.2795714,39.7121538 Z" id="Shape"></path>
                    <path d="M33.6878571,50.061011 C32.5329286,50.061011 31.5920714,50.967978 31.5920714,52.0814505 C31.5920714,53.1961978 32.5329286,54.1031648 33.6878571,54.1031648 C34.8427857,54.1031648 35.7823214,53.1961978 35.7823214,52.0814505 C35.7823214,50.967978 34.8427857,50.061011 33.6878571,50.061011 L33.6878571,50.061011 Z M33.6883197,53.359044 C32.9588183,53.359044 32.3641161,52.7853603 32.3641161,52.0801119 C32.3641161,51.3779231 32.9588183,50.8057692 33.6883197,50.8057692 C34.4162353,50.8057692 35.0109375,51.3779231 35.0109375,52.0801119 C35.0109375,52.7853603 34.4162353,53.359044 33.6883197,53.359044 L33.6883197,53.359044 Z" id="Shape"></path>
                    <path d="M33.6878571,45.5408352 C32.5329286,45.5408352 31.5920714,46.4478022 31.5920714,47.5625495 C31.5920714,48.6772967 32.5329286,49.5842637 33.6878571,49.5842637 C34.8427857,49.5842637 35.7823214,48.6772967 35.7823214,47.5625495 C35.7823214,46.4478022 34.8427857,45.5408352 33.6878571,45.5408352 L33.6878571,45.5408352 Z M33.6883194,48.8395055 C32.9590729,48.8395055 32.3645784,48.2660222 32.3645784,47.5625495 C32.3645784,46.8590767 32.9590729,46.2855934 33.6883194,46.2855934 C34.4159807,46.2855934 35.0104752,46.8590767 35.0104752,47.5625495 C35.0104752,48.2660222 34.4159807,48.8395055 33.6883194,48.8395055 L33.6883194,48.8395055 Z" id="Shape"></path>
                    <path d="M31.5920714,43.0436484 C31.5920714,44.1571209 32.5329286,45.0640879 33.6878571,45.0640879 C34.8427857,45.0640879 35.7823214,44.1571209 35.7823214,43.0436484 C35.7823214,41.9289011 34.8427857,41.0219341 33.6878571,41.0219341 C32.5329286,41.0219341 31.5920714,41.9289011 31.5920714,43.0436484 L31.5920714,43.0436484 Z M35.0106071,43.0449865 C35.0106071,43.747 34.4160534,44.319011 33.6883195,44.319011 C32.9590002,44.319011 32.3644464,43.747 32.3644464,43.0449865 C32.3644464,42.3399141 32.9590002,41.7663736 33.6883195,41.7663736 C34.4160534,41.7663736 35.0106071,42.3399141 35.0106071,43.0449865 L35.0106071,43.0449865 Z" id="Shape"></path>
                    <path d="M9.01678571,48.4312747 C10.769,48.4312747 12.1961429,47.0552088 12.1961429,45.3642857 C12.1961429,43.6733626 10.7696607,42.2979341 9.01678571,42.2979341 C7.26391071,42.2979341 5.83808929,43.6733626 5.83808929,45.3642857 C5.83808929,47.0552088 7.26391071,48.4312747 9.01678571,48.4312747 L9.01678571,48.4312747 Z M9.01678571,43.043011 C10.3437505,43.043011 11.4245846,44.0837683 11.4245846,45.3647725 C11.4245846,46.6457768 10.3447233,47.6874725 9.01678571,47.6874725 C7.68884813,47.6874725 6.60898679,46.6457768 6.60898679,45.3647725 C6.60898679,44.0837683 7.68982097,43.043011 9.01678571,43.043011 L9.01678571,43.043011 Z" id="Shape"></path>
                </g>
            </g>
        </g>
    </g>
</svg>