<?xml version="1.0" encoding="UTF-8" standalone="no"?>
<svg width="44px" height="54px" viewBox="0 0 44 54" version="1.1" xmlns="http://www.w3.org/2000/svg" xmlns:xlink="http://www.w3.org/1999/xlink" xmlns:sketch="http://www.bohemiancoding.com/sketch/ns">
    <!-- Generator: Sketch 3.3.1 (12002) - http://www.bohemiancoding.com/sketch -->
    <title>Drive_2</title>
    <desc>Created with Sketch.</desc>
    <defs></defs>
    <g id="Page-1" stroke="none" stroke-width="1" fill="none" fill-rule="evenodd" sketch:type="MSPage">
        <g id="Услуга" sketch:type="MSArtboardGroup" transform="translate(-169.000000, -259.000000)" fill="#A3AFC1">
            <g id="Group" sketch:type="MSLayerGroup" transform="translate(-4.000000, 238.000000)">
                <path d="M216.354839,66.5625 L216.354839,68.25 L216.354839,73.3125 C216.354839,74.26875 215.603355,75 214.620645,75 L209.418065,75 C208.435355,75 207.683871,74.26875 207.683871,73.3125 L207.683871,68.25 L198.89729,68.25 C198.492645,70.1625 196.758452,71.625 194.677419,71.625 C192.596387,71.625 190.804387,70.1625 190.457548,68.25 L181.670968,68.25 L181.670968,73.3125 C181.670968,74.26875 180.919484,75 179.936774,75 L174.734194,75 C173.751484,75 173,74.26875 173,73.3125 L173,68.25 L173,66.5625 L173,61.5 C173,60.54375 173.751484,59.8125 174.734194,59.8125 L179.936774,59.8125 C180.919484,59.8125 181.670968,60.54375 181.670968,61.5 L181.670968,66.5625 L190.457548,66.5625 C190.804387,64.93125 192.133935,63.58125 193.810323,63.3 L193.810323,41.25 L192.076129,41.25 C191.093419,41.25 190.341935,40.51875 190.341935,39.5625 L190.341935,32.8125 C189.359226,32.8125 188.607742,32.08125 188.607742,31.125 L188.607742,29.4375 L181.670968,29.4375 L181.670968,34.5 C181.670968,35.45625 180.919484,36.1875 179.936774,36.1875 L174.734194,36.1875 C173.751484,36.1875 173,35.45625 173,34.5 L173,29.4375 L173,27.75 L173,22.6875 C173,21.73125 173.751484,21 174.734194,21 L179.936774,21 C180.919484,21 181.670968,21.73125 181.670968,22.6875 L181.670968,27.75 L188.607742,27.75 L188.607742,26.0625 C188.607742,25.10625 189.359226,24.375 190.341935,24.375 L199.012903,24.375 C199.995613,24.375 200.747097,25.10625 200.747097,26.0625 L200.747097,27.75 L207.683871,27.75 L207.683871,22.6875 C207.683871,21.73125 208.435355,21 209.418065,21 L214.620645,21 C215.603355,21 216.354839,21.73125 216.354839,22.6875 L216.354839,27.75 L216.354839,29.4375 L216.354839,34.5 C216.354839,35.45625 215.603355,36.1875 214.620645,36.1875 L209.418065,36.1875 C208.435355,36.1875 207.683871,35.45625 207.683871,34.5 L207.683871,29.4375 L200.747097,29.4375 L200.747097,31.125 C200.747097,32.08125 199.995613,32.8125 199.012903,32.8125 L199.012903,39.5625 C199.012903,40.51875 198.261419,41.25 197.27871,41.25 L195.544516,41.25 L195.544516,63.3 C197.220903,63.6375 198.608258,64.93125 198.89729,66.5625 L207.683871,66.5625 L207.683871,61.5 C207.683871,60.54375 208.435355,59.8125 209.418065,59.8125 L214.620645,59.8125 C215.603355,59.8125 216.354839,60.54375 216.354839,61.5 L216.354839,66.5625 L216.354839,66.5625 Z M194.677419,64.1742585 C192.832185,64.1742585 191.355998,65.6106992 191.355998,67.40625 C191.355998,69.2018008 192.832185,70.6382415 194.677419,70.6382415 C196.522654,70.6382415 197.998841,69.2018008 197.998841,67.40625 C197.998841,65.6106992 196.522654,64.1742585 194.677419,64.1742585 L194.677419,64.1742585 L194.677419,64.1742585 Z M197.926583,32.8496822 L191.428256,32.8496822 L191.428256,40.2575212 L193.594365,40.2575212 L195.760474,40.2575212 L197.926583,40.2575212 L197.926583,32.8496822 L197.926583,32.8496822 Z M189.607108,31.5540254 L199.747731,31.5540254 L199.747731,29.5805085 L199.747731,29.5147246 L199.747731,29.4489407 L199.747731,29.3831568 L199.747731,29.3173729 L199.747731,29.251589 L199.747731,29.1858051 L199.747731,29.1200212 L199.747731,29.0542373 L199.747731,28.9884534 L199.747731,28.9226695 L199.747731,28.8568856 L199.747731,28.7911017 L199.747731,28.7253178 L199.747731,28.6595339 L199.747731,28.59375 L199.747731,28.5279661 L199.747731,28.4621822 L199.747731,28.3963983 L199.747731,28.3306144 L199.747731,28.2648305 L199.747731,28.1990466 L199.747731,28.2648305 L199.747731,28.1990466 L199.747731,28.1332627 L199.747731,28.0674788 L199.747731,28.0016949 L199.747731,27.935911 L199.747731,27.8701271 L199.747731,27.8043432 L199.747731,27.7385593 L199.747731,27.6727754 L199.747731,27.6069915 L199.747731,25.6334746 L189.607108,25.6334746 L189.607108,27.6069915 L189.607108,27.6727754 L189.607108,27.7385593 L189.607108,27.8043432 L189.607108,27.8701271 L189.607108,27.935911 L189.607108,28.0016949 L189.607108,28.0674788 L189.607108,28.1332627 L189.607108,28.1990466 L189.607108,28.2648305 L189.607108,28.3306144 L189.607108,28.3963983 L189.607108,28.4621822 L189.607108,28.5279661 L189.607108,28.59375 L189.607108,28.6595339 L189.607108,28.7253178 L189.607108,28.7911017 L189.607108,28.8568856 L189.607108,28.9226695 L189.607108,28.9884534 L189.607108,28.9226695 L189.607108,28.9884534 L189.607108,29.0542373 L189.607108,29.1200212 L189.607108,29.1858051 L189.607108,29.251589 L189.607108,29.3173729 L189.607108,29.3831568 L189.607108,29.4489407 L189.607108,29.5147246 L189.607108,29.5805085 L189.607108,31.5540254 L189.607108,31.5540254 Z M174.069787,29.5519068 L174.069787,35.0434322 L180.713855,35.0434322 L180.713855,29.5519068 L180.713855,27.7213983 L180.713855,22.2298729 L174.069787,22.2298729 L174.069787,27.7213983 L174.069787,29.5519068 Z M208.753658,27.8129237 L208.753658,29.6434322 L208.753658,35.1349576 L215.397726,35.1349576 L215.397726,29.6434322 L215.397726,27.8129237 L215.397726,22.3213983 L208.753658,22.3213983 L208.753658,27.8129237 L208.753658,27.8129237 Z M174.069787,66.5338983 L174.069787,68.3644068 L174.069787,73.8559322 L180.713855,73.8559322 L180.713855,68.3644068 L180.713855,66.5338983 L180.713855,61.0423729 L174.069787,61.0423729 L174.069787,66.5338983 L174.069787,66.5338983 Z M208.730257,66.5327721 L208.730257,68.3632806 L208.730257,73.854806 L215.374325,73.854806 L215.374325,68.3632806 L215.374325,66.5327721 L215.374325,61.0412467 L208.730257,61.0412467 L208.730257,66.5327721 L208.730257,66.5327721 Z" id="Drive_2" sketch:type="MSShapeGroup"></path>
            </g>
        </g>
    </g>
</svg>