<?xml version="1.0" encoding="UTF-8" standalone="no"?>
<svg width="66px" height="47px" viewBox="0 0 66 47" version="1.1" xmlns="http://www.w3.org/2000/svg" xmlns:xlink="http://www.w3.org/1999/xlink" xmlns:sketch="http://www.bohemiancoding.com/sketch/ns">
    <!-- Generator: Sketch 3.3.1 (12002) - http://www.bohemiancoding.com/sketch -->
    <title>Engine_3</title>
    <desc>Created with Sketch.</desc>
    <defs></defs>
    <g id="Page-1" stroke="none" stroke-width="1" fill="none" fill-rule="evenodd" sketch:type="MSPage">
        <g id="Услуга" sketch:type="MSArtboardGroup" transform="translate(-288.000000, -263.000000)" fill="#A3AFC1">
            <g id="Group" sketch:type="MSLayerGroup" transform="translate(-4.000000, 238.000000)">
                <path d="M352.426192,38.4957605 L346.594053,38.4957605 C345.874652,38.4957605 345.486491,38.890134 345.486491,39.6497709 L345.486491,44.9428141 L343.386343,44.9428141 L336.191683,33.3605879 C336.191683,33.3605879 335.111145,30.8716684 333.830165,30.8716684 L320.884742,30.8716684 L320.884742,26.7130726 L331.380119,26.7130726 C332.100177,26.7130726 332.684114,26.7132976 332.684114,25.9543538 C332.684114,25.1954101 332.099519,25.300215 331.380119,25.300215 L308.920234,25.300215 C308.199518,25.300215 307.616239,25.1954101 307.616239,25.9543538 C307.616239,26.7132976 308.200176,26.7130726 308.920234,26.7130726 L319.286189,26.7130726 L319.286189,30.8716684 L306.451652,30.8716684 C306.183998,30.8716684 305.922357,30.9179541 305.673761,31.0030684 C305.673761,31.0030684 305.21815,31.1972785 305.013451,31.3396114 C304.265359,31.8597794 300.840462,37.109562 300.840462,37.109562 L297.812274,37.109562 C297.092216,37.109562 296.515512,37.6182968 296.515512,38.3779337 L296.515512,48.342691 L293.885164,48.342691 L293.885164,36.8503428 C293.885164,36.0913991 293.805945,35.4759269 293.085887,35.4759269 C292.365829,35.4759269 292.38979,36.0913991 292.38979,36.8503428 L292.38979,60.5203766 C292.38979,61.2800135 292.365829,61.8947925 293.085887,61.8947925 C293.805945,61.8947925 293.885164,61.2793204 293.885164,60.5203766 L293.885164,49.6509687 L296.515512,49.6509687 L296.515512,57.4645019 C296.515512,58.2241387 297.092216,59.2887392 297.812274,59.2887392 L300.850326,59.2887392 L304.152728,62.9399863 L310.676649,70.8184459 C310.924559,71.1268751 311.288205,71.0714271 311.671578,71.0714271 L341.449749,71.0714271 C342.88855,71.0714271 343.577361,71.0714273 343.852038,68.6358762 L343.841517,64.8335335 L345.176953,64.8335335 L345.176953,69.939596 C345.176953,70.6992328 345.87531,71.0714271 346.59471,71.0714271 L351.906041,71.0714271 C352.247986,71.0714271 352.576122,71.0513272 352.820087,70.7990391 C355.945598,67.5636516 357.173313,60.4961182 357.2805,54.8522107 C357.420566,47.5136754 355.954147,41.584211 353.356678,38.7965656 C353.111398,38.533881 352.776686,38.4957605 352.426192,38.4957605 Z M352.297286,70.1414619 L346.108149,70.1414619 L346.156849,64.7016024 C346.156849,64.7016024 346.08762,64.2092638 345.451568,63.8928717 C344.815516,63.5764797 343.769432,63.7882918 343.769432,63.7882918 C343.404859,63.7882918 342.809642,64.3173412 342.810333,64.7016021 L342.721681,69.932302 L311.205048,69.932302 L304.795421,62.1123614 L301.128074,58.349473 C300.867269,58.0432309 300.496471,58.1642695 300.106994,58.1642695 L297.701645,58.1642695 L297.701645,38.1548037 L299.726072,38.1548039 C300.072658,38.1548039 301.122366,38.2037588 301.376944,37.9543903 C301.376944,37.9543903 305.297765,32.6208121 305.607304,32.2024923 C305.916842,31.7841725 333.972809,32.0107935 333.972809,32.0107935 C333.972809,32.0107935 334.77808,33.358254 334.933041,33.5981436 L342.591802,45.9024669 C342.846381,46.2983941 343.149114,46.4763513 343.603619,46.4763513 L344.609157,46.4763513 L345.640952,46.4763513 C346.39846,46.4763513 346.830405,46.2867733 346.830405,45.4876273 L346.830405,39.7176792 L352.863517,39.7176794 C354.268565,41.3004287 355.406666,45.2565532 355.882926,49.7341791 C356.064883,51.4448692 356.150234,53.2316799 356.116959,54.9913395 C355.995896,61.3619036 354.322843,67.2248708 352.297286,70.1414619 Z" id="Engine_3" sketch:type="MSShapeGroup"></path>
            </g>
        </g>
    </g>
</svg>