<?xml version="1.0" encoding="UTF-8" standalone="no"?>
<svg width="56px" height="56px" viewBox="0 0 56 56" version="1.1" xmlns="http://www.w3.org/2000/svg" xmlns:xlink="http://www.w3.org/1999/xlink" xmlns:sketch="http://www.bohemiancoding.com/sketch/ns">
    <!-- Generator: Sketch 3.3.1 (12002) - http://www.bohemiancoding.com/sketch -->
    <title>Transmission_4@3x</title>
    <desc>Created with Sketch.</desc>
    <defs></defs>
    <g id="Page-1" stroke="none" stroke-width="1" fill="none" fill-rule="evenodd" sketch:type="MSPage">
        <g id="Услуга" sketch:type="MSArtboardGroup" transform="translate(-419.000000, -258.000000)" fill="#A3AFC1">
            <g id="Group" sketch:type="MSLayerGroup" transform="translate(-4.000000, 238.000000)">
                <g id="Transmission_4" transform="translate(451.000000, 48.000000) scale(-1, 1) translate(-451.000000, -48.000000) translate(423.000000, 20.000000)" sketch:type="MSShapeGroup">
                    <path d="M28,56 C12.5608,56 0,43.4392 0,28 C0,12.5608 12.5608,0 28,0 C43.4392,0 56,12.5608 56,28 C56,43.4392 43.4392,56 28,56 L28,56 L28,56 Z M28,0.83 C13.017517,0.83 0.83,13.0186983 0.83,28 C0.83,42.9813017 13.017517,55.17 28,55.17 C42.982483,55.17 55.17,42.9813017 55.17,28 C55.17,13.0186983 42.982483,0.83 28,0.83 L28,0.83 L28,0.83 Z" id="Shape"></path>
                    <path d="M16.5465116,14.0831102 C14.3156792,14.0831102 12.5,16.0240094 12.5,18.4086916 C12.5,20.6710122 14.1368534,22.5265229 16.2093023,22.711744 L16.2093023,34.2916858 C14.1368534,34.4769058 12.5,36.3324072 12.5,38.5947381 C12.5,40.9794312 14.3156792,42.9203195 16.5465116,42.9203195 C18.777344,42.9203195 20.5930233,40.9794312 20.5930233,38.5947381 C20.5930233,36.3324072 18.9561698,34.4769058 16.8837209,34.2916858 L16.8837209,28.86218 L26.6627907,28.86218 L26.6627907,34.2916858 C24.5903418,34.4769058 22.9534884,36.3324072 22.9534884,38.5947381 C22.9534884,40.9794312 24.7691676,42.9203195 27,42.9203195 C29.2308324,42.9203195 31.0465116,40.9794312 31.0465116,38.5947381 C31.0465116,36.3324072 29.4096582,34.4769058 27.3372093,34.2916858 L27.3372093,28.86218 L37.4534884,28.86218 C37.6300458,28.8621613 37.7906801,28.6904487 37.7906977,28.5017149 L37.7906977,22.711744 C39.8631466,22.5265229 41.5,20.6710122 41.5,18.4086916 C41.5,16.0240094 39.6843208,14.0831102 37.4534884,14.0831102 C35.222656,14.0831102 33.4069767,16.0240094 33.4069767,18.4086916 C33.4069767,20.6710122 35.0438302,22.5265229 37.1162791,22.711744 L37.1162791,28.1412498 L27.3372093,28.1412498 L27.3372093,22.711744 C29.4096582,22.5265229 31.0465116,20.6710122 31.0465116,18.4086916 C31.0465116,16.0240094 29.2308324,14.0831102 27,14.0831102 C24.7691676,14.0831102 22.9534884,16.0240094 22.9534884,18.4086916 C22.9534884,20.6710122 24.5903418,22.5265229 26.6627907,22.711744 L26.6627907,28.1412498 L16.8837209,28.1412498 L16.8837209,22.711744 C18.9561698,22.5265229 20.5930233,20.6710122 20.5930233,18.4086916 C20.5930233,16.0240094 18.777344,14.0831102 16.5465116,14.0831102 L16.5465116,14.0831102 Z M16.5465116,14.8040405 C18.4128613,14.8040405 19.9186047,16.413629 19.9186047,18.4086916 C19.9186047,20.4037543 18.4128613,22.0133428 16.5465116,22.0133428 C14.680162,22.0133428 13.1744186,20.4037543 13.1744186,18.4086916 C13.1744186,16.413629 14.680162,14.8040405 16.5465116,14.8040405 L16.5465116,14.8040405 Z M27,14.8040405 C28.8663496,14.8040405 30.372093,16.413629 30.372093,18.4086916 C30.372093,20.4037543 28.8663496,22.0133428 27,22.0133428 C25.1336504,22.0133428 23.627907,20.4037543 23.627907,18.4086916 C23.627907,16.413629 25.1336504,14.8040405 27,14.8040405 L27,14.8040405 Z M37.4534884,14.8040405 C39.319838,14.8040405 40.8255814,16.413629 40.8255814,18.4086916 C40.8255814,20.4037543 39.319838,22.0133428 37.4534884,22.0133428 C35.5871387,22.0133428 34.0813953,20.4037543 34.0813953,18.4086916 C34.0813953,16.413629 35.5871387,14.8040405 37.4534884,14.8040405 L37.4534884,14.8040405 Z M16.5465116,34.990087 C18.4128613,34.990087 19.9186047,36.5996719 19.9186047,38.5947381 C19.9186047,40.5898044 18.4128613,42.1993893 16.5465116,42.1993893 C14.680162,42.1993893 13.1744186,40.5898044 13.1744186,38.5947381 C13.1744186,36.5996719 14.680162,34.990087 16.5465116,34.990087 L16.5465116,34.990087 Z M27,34.990087 C28.8663496,34.990087 30.372093,36.5996719 30.372093,38.5947381 C30.372093,40.5898044 28.8663496,42.1993893 27,42.1993893 C25.1336504,42.1993893 23.627907,40.5898044 23.627907,38.5947381 C23.627907,36.5996719 25.1336504,34.990087 27,34.990087 L27,34.990087 Z" id="Shape" transform="translate(27.000000, 28.501715) scale(-1, 1) translate(-27.000000, -28.501715) "></path>
                </g>
            </g>
        </g>
    </g>
</svg>