<?xml version="1.0" encoding="UTF-8" standalone="no"?>
<svg width="87px" height="39px" viewBox="0 0 87 39" version="1.1" xmlns="http://www.w3.org/2000/svg" xmlns:xlink="http://www.w3.org/1999/xlink" xmlns:sketch="http://www.bohemiancoding.com/sketch/ns">
    <!-- Generator: Sketch 3.3.1 (12002) - http://www.bohemiancoding.com/sketch -->
    <title>Car_5</title>
    <desc>Created with Sketch.</desc>
    <defs></defs>
    <g id="Page-1" stroke="none" stroke-width="1" fill="none" fill-rule="evenodd" sketch:type="MSPage">
        <g id="Услуга" sketch:type="MSArtboardGroup" transform="translate(-534.000000, -268.000000)" stroke="#B6BECA">
            <g id="Group" sketch:type="MSLayerGroup" transform="translate(-4.000000, 238.000000)">
                <path d="M621.79609,60.822696 L620.41368,61.2122537 C619.431942,55.6236786 617.30673,52.7575549 617.30673,52.7575549 C615.443293,49.6102214 609.15824,50.3970548 609.15824,50.3970548 C603.906565,50.9872788 602.788486,61.4130189 602.788486,61.4130189 L602.788486,62.7879984 C602.703273,62.7889879 602.684356,62.7899774 602.63604,62.7899774 C602.63604,62.7899774 582.016632,62.6060333 565.518976,62.111294 C564.643924,55.8017848 562.245179,52.5609455 562.245179,52.5609455 C560.381657,49.4135131 554.115777,50.2003465 554.115777,50.2003465 C548.864187,50.7904715 547.764088,61.2163106 547.764088,61.2163106 C547.764088,61.2163106 541.157697,60.6261856 539.633066,59.2491282 C539.633066,59.2491282 537.769885,56.298503 539.125197,52.7576539 C539.125197,52.7576539 539.972299,51.1839871 540.649998,50.2004454 C540.649998,50.2004454 539.972384,47.2497213 540.141873,44.8892211 C540.141873,44.8892211 541.666589,40.5615386 545.054741,34.6601893 C545.054741,34.6601893 542.344202,32.6931059 544.207725,32.6931059 C544.207725,32.6931059 574.701014,29.7423818 584.187774,32.2996892 C584.187774,32.2996892 590.28638,33.6766476 600.959049,42.528721 C600.959049,42.528721 621.79609,44.8892211 622.643107,48.0366536 C622.643022,48.0363568 625.353646,58.0687792 621.79609,60.822696 L621.79609,60.822696 Z M550.442672,35.1615581 C550.442672,35.1615581 547.774484,37.374626 545.741643,40.7678449 C545.741643,40.7678449 551.775914,41.1878786 559.735487,41.733675 L562.020813,33.6341 C559.8109,33.7009888 557.432436,33.8121072 554.889596,33.9813081 C554.889596,33.9813081 551.459092,34.1288393 550.442672,35.1615581 L550.442672,35.1615581 Z M563.994431,33.5849229 L562.173259,41.9008968 C567.359661,42.2550312 573.137271,42.6473595 578.504069,43.0054518 L578.146686,33.9497437 C575.031214,33.6970309 570.268321,33.4619307 563.994431,33.5849229 L563.994431,33.5849229 Z M582.458888,34.4239018 C582.458888,34.4239018 582.491098,34.2606379 580.578493,34.0747148 L582.022768,43.238573 C589.015003,43.6998679 594.831555,44.0676571 596.942365,44.1600744 C596.942365,44.1601733 592.114284,36.4893395 582.458888,34.4239018 L582.458888,34.4239018 Z M556.604336,53.9465124 C553.201186,53.9465124 550.442416,57.1499494 550.442416,61.101729 C550.442416,65.0534096 553.201186,68.2568466 556.604336,68.2568466 C560.007487,68.2568466 562.766256,65.0534096 562.766256,61.101729 C562.766256,57.1499494 560.007487,53.9465124 556.604336,53.9465124 L556.604336,53.9465124 Z M611.661627,53.9465124 C608.258477,53.9465124 605.499707,57.1499494 605.499707,61.101729 C605.499707,65.0534096 608.258477,68.2568466 611.661627,68.2568466 C615.064777,68.2568466 617.823632,65.0534096 617.823632,61.101729 C617.823632,57.1499494 615.064777,53.9465124 611.661627,53.9465124 L611.661627,53.9465124 Z" id="Car_5" sketch:type="MSShapeGroup"></path>
            </g>
        </g>
    </g>
</svg>