<?xml version="1.0" encoding="UTF-8" standalone="no"?>
<svg width="63px" height="46px" viewBox="0 0 63 46" version="1.1" xmlns="http://www.w3.org/2000/svg" xmlns:xlink="http://www.w3.org/1999/xlink" xmlns:sketch="http://www.bohemiancoding.com/sketch/ns">
    <!-- Generator: Sketch 3.3.1 (12002) - http://www.bohemiancoding.com/sketch -->
    <title>Electro_6</title>
    <desc>Created with Sketch.</desc>
    <defs></defs>
    <g id="Page-1" stroke="none" stroke-width="1" fill="none" fill-rule="evenodd" sketch:type="MSPage">
        <g id="Услуга" sketch:type="MSArtboardGroup" transform="translate(-671.000000, -263.000000)" fill="#B6BECA">
            <g id="Group" sketch:type="MSLayerGroup" transform="translate(-4.000000, 238.000000)">
                <path d="M697.5981,49.9390907 C697.5981,50.2956747 697.2915,50.584904 696.9128,50.584904 L685.2718,50.584904 C684.8938,50.584904 684.5872,50.2956747 684.5872,49.9390907 C684.5872,49.5818463 684.8938,49.292617 685.2718,49.292617 L696.9128,49.292617 C697.2915,49.292617 697.5981,49.5818463 697.5981,49.9390907 L697.5981,49.9390907 Z M727.7282,49.292617 L722.5923,49.292617 L722.5923,44.4476966 C722.5923,44.0911126 722.2857,43.8018833 721.907,43.8018833 C721.529,43.8018833 721.2224,44.0911126 721.2224,44.4476966 L721.2224,49.292617 L716.0865,49.292617 C715.7078,49.292617 715.4012,49.5818463 715.4012,49.9390907 C715.4012,50.2956747 715.7078,50.584904 716.0865,50.584904 L721.2224,50.584904 L721.2224,55.4298243 C721.2224,55.7870687 721.529,56.076298 721.907,56.076298 C722.2857,56.076298 722.5923,55.7870687 722.5923,55.4298243 L722.5923,50.584904 L727.7282,50.584904 C728.1062,50.584904 728.4128,50.2956747 728.4128,49.9390907 C728.4128,49.5818463 728.1062,49.292617 727.7282,49.292617 L727.7282,49.292617 Z M738,33.9165817 L738,65.9602789 C738,68.738993 735.6032,70.9999999 732.6569,70.9999999 L680.3431,70.9999999 C677.3968,71.0006602 675,68.7396533 675,65.9609393 L675,33.9165817 C675,31.1372073 677.3968,28.8762004 680.3431,28.8762004 L686.0824,28.8762004 L686.0824,26.9381002 C686.0824,25.8696688 687.0036,25 688.1369,25 L698.0664,25 C699.1997,25 700.1209,25.8690085 700.1209,26.9381002 L700.1209,28.8762004 L714.158,28.8762004 L714.158,26.9381002 C714.158,25.8696688 715.0792,25 716.2125,25 L726.142,25 C727.2746,25 728.1965,25.8690085 728.1965,26.9381002 L728.1965,28.8762004 L732.6576,28.8762004 C735.6032,28.8768608 738,31.1372073 738,33.9165817 L738,33.9165817 Z M715.5272,28.8768608 L726.8259,28.8768608 L726.8259,26.9387606 C726.8259,26.5828369 726.5186,26.2922869 726.1413,26.2922869 L716.2125,26.2922869 C715.8345,26.2922869 715.5272,26.5821765 715.5272,26.9387606 L715.5272,28.8768608 L715.5272,28.8768608 Z M687.4516,28.8768608 L698.751,28.8768608 L698.751,26.9387606 C698.751,26.5828369 698.4437,26.2922869 698.0657,26.2922869 L688.1362,26.2922869 C687.7582,26.2922869 687.4509,26.5821765 687.4509,26.9387606 L687.4509,28.8768608 L687.4516,28.8768608 Z M736.6301,33.9165817 C736.6301,31.849715 734.8479,30.1684874 732.6569,30.1684874 L728.1958,30.1684874 L726.8259,30.1684874 L715.5272,30.1684874 L714.158,30.1684874 L700.1202,30.1684874 L698.7503,30.1684874 L687.4516,30.1684874 L686.0824,30.1684874 L680.3431,30.1684874 C678.1521,30.1684874 676.3699,31.849715 676.3699,33.9165817 L676.3699,65.9602789 C676.3699,68.0264853 678.1521,69.7083733 680.3431,69.7083733 L732.6569,69.7083733 C734.8479,69.7083733 736.6301,68.0271456 736.6301,65.9602789 L736.6301,33.9165817 L736.6301,33.9165817 Z" id="Electro_6" sketch:type="MSShapeGroup"></path>
            </g>
        </g>
    </g>
</svg>