<?xml version="1.0" encoding="UTF-8" standalone="no"?>
<svg width="56px" height="56px" viewBox="0 0 56 56" version="1.1" xmlns="http://www.w3.org/2000/svg" xmlns:xlink="http://www.w3.org/1999/xlink" xmlns:sketch="http://www.bohemiancoding.com/sketch/ns">
    <!-- Generator: Sketch 3.3.1 (12002) - http://www.bohemiancoding.com/sketch -->
    <title>Shino_7</title>
    <desc>Created with Sketch.</desc>
    <defs></defs>
    <g id="Page-1" stroke="none" stroke-width="1" fill="none" fill-rule="evenodd" sketch:type="MSPage">
        <g id="Услуга" sketch:type="MSArtboardGroup" transform="translate(-802.000000, -258.000000)" fill="#A3AFC1">
            <g id="Group" sketch:type="MSLayerGroup" transform="translate(-4.000000, 238.000000)">
                <g id="Shino_7" transform="translate(806.000000, 20.000000)" sketch:type="MSShapeGroup">
                    <path d="M28,0 C12.5601778,0 0,12.5620444 0,28 C0,43.4398222 12.5601778,56 28,56 C43.4398222,56 56,43.4398222 56,28 C56,12.5620444 43.4398222,0 28,0 L28,0 Z M28,54.9279111 C13.1525333,54.9279111 1.07208889,42.8505778 1.07208889,28 C1.07208889,13.1544 13.1525333,1.07208889 28,1.07208889 C42.8474667,1.07208889 54.9279111,13.1544 54.9279111,28 C54.9279111,42.8505778 42.8474667,54.9279111 28,54.9279111 L28,54.9279111 Z" id="Shape"></path>
                    <path d="M29.8834667,21.7435556 L30.2188444,21.8648889 C30.9306667,22.1243556 31.5939556,22.5113778 32.1906667,23.0141333 L32.4632,23.2443556 L40.8065778,18.9908444 L40.4108444,18.4756444 C37.8510222,15.1517333 34.1668444,13.0206222 30.0321778,12.4805333 L29.2973333,12.4550222 L29.4379556,13.0934222 L29.8834667,21.7435556 L29.8834667,21.7435556 Z M39.1533333,18.6218667 L32.6013333,21.9669333 C32.0799111,21.5668444 31.5149333,21.2389333 30.9182222,20.9875556 L30.5399111,13.6397333 C33.9136,14.2345778 36.932,15.9805333 39.1533333,18.6218667 L39.1533333,18.6218667 Z" id="Shape"></path>
                    <path d="M23.7508444,23.0514667 C24.3705778,22.5200889 25.0693333,22.1156444 25.8315556,21.8474667 L26.1663111,21.7286222 L26.6790222,13.1338667 L26.7860444,12.376 L26.0972444,12.4593778 C21.9215111,12.9658667 18.0593778,15.2015111 15.5008,18.5926222 L15.0733333,19.1414222 L23.4801778,23.2816889 L23.7508444,23.0514667 L23.7508444,23.0514667 Z M16.7570667,18.7307556 C18.9927111,16.0265778 22.1492444,14.1972444 25.5783111,13.6167111 L25.1390222,20.9645333 C24.4919111,21.2264889 23.8846222,21.5780444 23.3302222,22.0092444 L16.7570667,18.7307556 L16.7570667,18.7307556 Z" id="Shape"></path>
                    <path d="M28,8.3608 C17.1714667,8.3608 8.3608,17.1714667 8.3608,28 C8.3608,38.8304 17.1714667,47.6410667 28,47.6410667 C38.8285333,47.6410667 47.6392,38.8304 47.6392,28 C47.6392,17.1714667 38.8285333,8.3608 28,8.3608 L28,8.3608 Z M28,46.5696 C17.7613333,46.5696 9.43226667,38.2411556 9.43226667,28.0006222 C9.43226667,17.7638222 17.7613333,9.43288889 28,9.43288889 C38.2386667,9.43288889 46.5677333,17.7644444 46.5677333,28.0006222 C46.5677333,38.2411556 38.2386667,46.5696 28,46.5696 L28,46.5696 Z" id="Shape"></path>
                    <path d="M31.9000889,28 C31.9000889,25.8477333 30.1479111,24.0961778 27.9962667,24.0961778 C25.8421333,24.0961778 24.0905778,25.8477333 24.0905778,28 C24.0905778,30.1541333 25.8421333,31.9056889 27.9962667,31.9056889 C30.1472889,31.9056889 31.9000889,30.1547556 31.9000889,28 L31.9000889,28 Z M27.9956444,30.8342222 C26.432,30.8342222 25.1614222,29.5642667 25.1614222,28.0006222 C25.1614222,26.4388444 26.432,25.1682667 27.9956444,25.1682667 C29.5574222,25.1682667 30.828,26.4388444 30.828,28.0006222 C30.828,29.5642667 29.5574222,30.8342222 27.9956444,30.8342222 L27.9956444,30.8342222 Z" id="Shape"></path>
                    <path d="M42.4119111,21.8648889 L42.1188444,21.3017778 L34.3566222,26.4388444 L34.4213333,26.7904 C34.5053333,27.2315556 34.5445333,27.6279111 34.5445333,28 C34.5445333,28.3752 34.5053333,28.7703111 34.4213333,29.2139556 L34.3566222,29.5617778 L41.4953778,34.2589333 L42.1568,34.7411556 L42.4119111,34.1382222 C43.2456889,32.1863111 43.6663111,30.1230222 43.6663111,28 C43.6663111,25.8776 43.2456889,23.8136889 42.4119111,21.8648889 L42.4119111,21.8648889 Z M41.6714667,33.1078222 L35.5363556,29.0546667 C35.5911111,28.6838222 35.6178667,28.3366222 35.6178667,28 C35.6178667,27.6652444 35.5911111,27.3174222 35.5363556,26.9453333 L41.6714667,22.8965333 C42.2843556,24.5292444 42.5942222,26.2434667 42.5942222,28 C42.5942222,29.7584 42.2843556,31.4707556 41.6714667,33.1078222 L41.6714667,33.1078222 Z" id="Shape"></path>
                    <path d="M21.5606222,29.1523556 C21.5064889,28.84 21.4436444,28.4274667 21.4436444,28.0006222 C21.4436444,27.5756444 21.5064889,27.1631111 21.5606222,26.8532444 L21.6216,26.5016889 L14.4417778,21.8667556 L13.7679111,21.4274667 L13.5314667,22.0030222 C12.7356444,23.9182222 12.3343111,25.9360889 12.3343111,28.0006222 C12.3343111,30.0688889 12.7362667,32.0861333 13.5314667,34.0000889 L13.8120889,34.5383111 L21.6222222,29.4983111 L21.5606222,29.1523556 L21.5606222,29.1523556 Z M20.4493333,28.9843556 L14.2824889,32.9802667 C13.7007111,31.3786667 13.4051556,29.7086222 13.4051556,28.0006222 C13.4051556,26.2944889 13.7007111,24.6219556 14.2824889,23.0228444 L20.4493333,27.0187556 C20.4076444,27.3099556 20.3715556,27.6472 20.3715556,28.0006222 C20.3721778,28.3559111 20.4076444,28.6925333 20.4493333,28.9843556 L20.4493333,28.9843556 Z" id="Shape"></path>
                    <path d="M25.8315556,34.1544 C25.0693333,33.8868444 24.3705778,33.4824 23.7508444,32.9510222 L23.4801778,32.7189333 L15.7285333,36.5910222 L15.0776889,36.8511111 L15.5008,37.4111111 C18.0587556,40.8003556 21.9208889,43.0341333 26.0972444,43.5431111 L26.7754667,43.6159111 L26.1663111,34.272 L25.8315556,34.1544 L25.8315556,34.1544 Z M16.7614222,37.2773333 L23.3302222,33.9913778 C23.8852444,34.4263111 24.4919111,34.7766222 25.1390222,35.0379556 L25.5801778,42.3857778 C22.1536,41.8077333 18.9964444,39.9777778 16.7614222,37.2773333 L16.7614222,37.2773333 Z" id="Shape"></path>
                    <path d="M32.1906667,32.9908444 C31.5939556,33.4929778 30.9306667,33.8781333 30.2188444,34.1382222 L29.8834667,34.2583111 L29.4398222,42.8748444 L29.2743111,43.6196444 L30.0321778,43.5238222 C34.1668444,42.9818667 37.8504,40.8526222 40.4108444,37.5237333 L40.8065778,37.0110222 L32.4632,32.76 L32.1906667,32.9908444 L32.1906667,32.9908444 Z M39.1533333,37.3806222 C36.9326222,40.0213333 33.9136,41.7654222 30.5392889,42.3596444 L30.9176,35.0130667 C31.5143111,34.7641778 32.0792889,34.4344 32.6007111,34.0324444 L39.1533333,37.3806222 L39.1533333,37.3806222 Z" id="Shape"></path>
                </g>
            </g>
        </g>
    </g>
</svg>