<?xml version="1.0" encoding="UTF-8" standalone="no"?>
<svg width="48px" height="50px" viewBox="0 0 48 50" version="1.1" xmlns="http://www.w3.org/2000/svg" xmlns:xlink="http://www.w3.org/1999/xlink" xmlns:sketch="http://www.bohemiancoding.com/sketch/ns">
    <!-- Generator: Sketch 3.3.1 (12002) - http://www.bohemiancoding.com/sketch -->
    <title>Condi_8</title>
    <desc>Created with Sketch.</desc>
    <defs></defs>
    <g id="Page-1" stroke="none" stroke-width="1" fill="none" fill-rule="evenodd" sketch:type="MSPage">
        <g id="Услуга" sketch:type="MSArtboardGroup" transform="translate(-936.000000, -261.000000)" fill="#B2BDCC">
            <g id="Group" sketch:type="MSLayerGroup" transform="translate(-4.000000, 238.000000)">
                <path d="M987.861057,50.7208073 C987.602767,50.347013 987.066785,50.2394056 986.664799,50.4806728 L979.525444,54.7878018 L965.753614,47.975685 L978.833639,40.6204339 L985.938434,44.886219 C986.083949,44.9728713 986.245835,45.0142152 986.406509,45.0142152 C986.690264,45.0142152 986.969169,44.8833872 987.134692,44.6432528 C987.392982,44.2677595 987.27657,43.7671017 986.874583,43.5258345 L980.487059,39.6910455 L986.649641,36.2255198 C987.058297,35.9950133 987.190473,35.4977537 986.945522,35.1160305 C986.698752,34.7326082 986.168227,34.6159391 985.757752,34.8396493 L979.714614,38.2377788 L979.714614,31.2761443 C979.714614,30.8292902 979.327785,30.4679558 978.849403,30.4679558 C978.371021,30.4679558 977.984192,30.8292902 977.984192,31.2761443 L977.984192,39.2107765 L964.861725,46.5903809 L964.861725,32.0163701 L972.289079,28.312409 C972.71168,28.1011586 972.870535,27.611828 972.645592,27.2187777 C972.417618,26.8228956 971.893762,26.6745106 971.474798,26.885761 L964.862331,30.1836456 L964.862331,23.8081885 C964.862331,23.3613344 964.475502,23 963.99712,23 C963.518738,23 963.131909,23.3613344 963.131909,23.8081885 L963.131909,30.1972382 L956.532781,26.754933 C956.116849,26.5368864 955.588143,26.6728116 955.355318,27.0658619 C955.121887,27.4555141 955.27104,27.9482428 955.688185,28.1657231 L963.132516,32.0492187 L963.132516,46.6792986 L949.287928,39.8309351 L949.287928,31.9059309 C949.287928,31.4590769 948.901099,31.0977425 948.422717,31.0977425 C947.944334,31.0977425 947.557506,31.4590769 947.557506,31.9059309 L947.557506,38.9751729 L941.493753,35.9757573 C941.069939,35.7645069 940.546083,35.9174227 940.324779,36.310473 C940.099836,36.7052224 940.260509,37.1939867 940.68311,37.4024053 L946.693507,40.3752022 L940.397536,44.1550548 C939.99555,44.396322 939.879137,44.8969798 940.137427,45.2724731 C940.302951,45.5126075 940.581856,45.6434355 940.865611,45.6434355 C941.026285,45.6434355 941.188171,45.602658 941.333686,45.5154393 L948.449394,41.2434243 L962.239414,48.0646027 L948.903524,55.5637081 L941.627749,51.465564 C941.227581,51.2367566 940.68978,51.3551248 940.441797,51.7402461 C940.195027,52.1219693 940.325385,52.6175298 940.73586,52.8480363 L947.229489,56.5055563 L941.342781,59.8159007 C940.934125,60.0464071 940.801948,60.5436668 941.046899,60.92539 C941.209392,61.1779843 941.496178,61.3167412 941.788422,61.3167412 C941.940607,61.3167412 942.094005,61.2787954 942.23467,61.2017712 L948.054684,57.9293725 L948.268106,64.9045995 C948.281445,65.3418255 948.667061,65.6890011 949.133317,65.6890011 L949.158783,65.6890011 C949.635346,65.6765413 950.011867,65.3038797 949.998528,64.8575921 L949.757215,56.9727991 L963.133122,49.4516059 L963.133122,64.0114579 L955.668783,67.717118 C955.246181,67.9272357 955.086114,68.416 955.310451,68.8090503 C955.465667,69.0820333 955.765187,69.2383473 956.074407,69.2383473 C956.211434,69.2383473 956.351493,69.2083305 956.480032,69.143766 L963.133122,65.8402178 L963.133122,72.2343647 C963.133122,72.6806524 963.519951,73.0425532 963.998333,73.0425532 C964.476715,73.0425532 964.863544,72.6812188 964.863544,72.2343647 L964.863544,65.8645711 L971.422049,69.2989473 C971.555438,69.3686089 971.700954,69.4014575 971.84465,69.4014575 C972.147201,69.4014575 972.441264,69.2530725 972.600118,68.9880184 C972.832943,68.6000653 972.684396,68.1073365 972.267252,67.8881572 L964.863544,64.0114579 L964.863544,49.3621218 L978.725715,56.2189807 L978.743298,64.1054728 C978.745117,64.5506277 979.131946,64.9119622 979.608509,64.9119622 L979.610328,64.9119622 C980.08871,64.9102631 980.475539,64.5489287 980.47372,64.102641 L980.457956,57.076442 L986.5017,60.0656632 C986.632058,60.1302277 986.770297,60.1602445 986.907324,60.1602445 C987.216545,60.1602445 987.517277,60.0039305 987.670675,59.7309475 C987.895617,59.3361981 987.734944,58.8474338 987.312343,58.6390152 L981.280118,55.6554576 L987.606405,51.8387918 C988.004754,51.5969583 988.121166,51.0963006 987.861057,50.7208073 L987.861057,50.7208073 Z" id="Condi_8" sketch:type="MSShapeGroup"></path>
            </g>
        </g>
    </g>
</svg>